{"title":"The Ex-PM S01E04","uid":12717757,"size":183068673,"categoryP":"video","categoryS":"tv_shows","magnet":"?xt=urn:btih:3d81225da4ba57b5a750091323000a78e6054e44&amp;dn=The+Ex-PM+S01E04&amp;tr=udp%3A%2F%2Ftracker.leechers-paradise.org%3A6969&amp;tr=udp%3A%2F%2Fzer0day.ch%3A1337&amp;tr=udp%3A%2F%2Fopen.demonii.com%3A1337&amp;tr=udp%3A%2F%2Ftracker.coppersurfer.tk%3A6969&amp;tr=udp%3A%2F%2Fexodus.desync.com%3A6969","seeders":0,"leechers":1,"uploader":"toots2boots","files":1,"time":1446957019,"description":"The ex-PM encounters an old enemy and decides to make amends before it’s too late.\r\n\r\n\r\nGeneral\r\nComplete name                            : M:PostsThe Ex-PM S01E04The.Ex-PM.S01E04.avi\r\nFormat                                   : AVI\r\nFormat/Info                              : Audio Video Interleave\r\nFile size                                : 175 MiB\r\nDuration                                 : 24mn 59s\r\nOverall bit rate mode                    : Variable\r\nOverall bit rate                         : 976 Kbps\r\nWriting application                      : VirtualDubMod 1.5.10.2 (build 2540/release)\r\nWriting library                          : VirtualDubMod build 2540/release\r\n\r\nVideo\r\nID                                       : 0\r\nFormat                                   : MPEG-4 Visual\r\nFormat profile                           : Advanced   \r\nFormat settings, BVOP                    : 2\r\nFormat settings, QPel                    : No\r\nFormat settings, GMC                     : No warppoints\r\nFormat settings, Matrix                  : Default (H.263)\r\nMuxing mode                              : Packed bitstream\r\nCodec ID                                 : XVID\r\nCodec ID/Hint                            : XviD\r\nDuration                                 : 24mn 59s\r\nBit rate                                 : 850 Kbps\r\nWidth                                    : 720 pixels\r\nHeight                                   : 400 pixels\r\nDisplay aspect ratio                     : 16:9\r\nFrame rate                               : 25.000 fps\r\nColor space                              : YUV\r\nChroma subsampling                       : 4:2:0\r\nBit depth                                : 8 bits\r\nScan type                                : Progressive\r\nCompression mode                         : Lossy\r\nBits/(Pixel*Frame)                       : 0.118\r\nStream size                              : 152 MiB (87%)\r\nWriting library                          : XviD 1.2.1 (UTC 2008-12-04)\r\n\r\nAudio\r\nID                                       : 1\r\nFormat                                   : MPEG Audio\r\nFormat version                           : Version 1\r\nFormat profile                           : Layer 3\r\nMode                                     : Joint stereo\r\nMode extension                           : MS Stereo\r\nCodec ID                                 : 55\r\nCodec ID/Hint                            : MP3\r\nDuration                                 : 24mn 59s\r\nBit rate mode                            : Variable\r\nBit rate                                 : 114 Kbps\r\nMinimum bit rate                         : 32.0 Kbps\r\nChannel(s)                               : 2 channels\r\nSampling rate                            : 44.1 KHz\r\nCompression mode                         : Lossy\r\nStream size                              : 20.4 MiB (12%)\r\nAlignment                                : Aligned on interleaves\r\nInterleave, duration                     : 26 ms (0.65 video frame)\r\nInterleave, preload duration             : 369 ms\r\nWriting library                          : LAME3.98r\r\nEncoding settings                        : -m j -V 6 -q 2 -lowpass 15.5 --vbr-new -b 32","torrent":{"xt":"urn:btih:3d81225da4ba57b5a750091323000a78e6054e44","amp;dn":"The+Ex-PM+S01E04","amp;tr":["udp%3A%2F%2Ftracker.leechers-paradise.org%3A6969","udp%3A%2F%2Fzer0day.ch%3A1337","udp%3A%2F%2Fopen.demonii.com%3A1337","udp%3A%2F%2Ftracker.coppersurfer.tk%3A6969","udp%3A%2F%2Fexodus.desync.com%3A6969"],"infoHash":"3d81225da4ba57b5a750091323000a78e6054e44","infoHashBuffer":{"type":"Buffer","data":[61,129,34,93,164,186,87,181,167,80,9,19,35,0,10,120,230,5,78,68]},"announce":[],"urlList":[]}}